<?xml version="1.0" encoding="utf-8"?>
<!-- Generator: Adobe Illustrator 16.0.0, SVG Export Plug-In . SVG Version: 6.00 Build 0)  -->
<!DOCTYPE svg PUBLIC "-//W3C//DTD SVG 1.1//EN" "http://www.w3.org/Graphics/SVG/1.1/DTD/svg11.dtd">
<svg version="1.1" id="Layer_1" xmlns="http://www.w3.org/2000/svg" xmlns:xlink="http://www.w3.org/1999/xlink" x="0px" y="0px"
	 width="700px" height="700px" viewBox="0 0 700 700" enable-background="new 0 0 700 700" xml:space="preserve">
<symbol  id="q" viewBox="-12.32 -7.844 24.641 15.688">
	<path d="M1.898-4.922c0.613-0.945,1.348-1.672,2.203-2.172c0.852-0.5,1.789-0.75,2.813-0.75c1.758,0,3.098,0.547,4.016,1.641
		c0.926,1.086,1.391,2.656,1.391,4.719v9.328H7.398v-7.984V-0.5c0.008-0.133,0.016-0.32,0.016-0.563
		c0-1.082-0.164-1.863-0.484-2.344C6.617-3.895,6.105-4.141,5.398-4.141c-0.93,0-1.648,0.387-2.156,1.156
		C2.73-2.223,2.469-1.117,2.461,0.328v7.516h-4.922v-7.984c0-1.695-0.148-2.785-0.438-3.266c-0.293-0.488-0.813-0.734-1.563-0.734
		c-0.938,0-1.664,0.387-2.172,1.156c-0.512,0.762-0.766,1.859-0.766,3.297v7.531h-4.922V-7.469h4.922v2.234
		c0.602-0.863,1.289-1.516,2.063-1.953c0.781-0.438,1.641-0.656,2.578-0.656c1.063,0,2,0.258,2.813,0.766
		C0.867-6.566,1.48-5.848,1.898-4.922L1.898-4.922z"/>
</symbol>
<g>
	<path fill="#200B12" d="M137.51,145.9c-2.438,3.746-12.813,7.48-17.414,8.527c3.656,8.281,22.031,10.949,47.375,8.574
		c3.82,8.703,13.008,73.18,12.465,95.473c-0.84,34.59,35.195,73.555,37.353,105.71c1.52,10.625,7.789,42.789,8.344,51.496
		c0.621,9.973,10.887,82.009-4.898,83.767c-9.793,1.086-19.383-3.641-21.763,9.789c-1.063,21.875,46.234,4.895,46.234,4.895
		c11.969-7.617,23.387-88.121,23.387-88.121s2.184,23.387,1.641,29.922c-0.547,6.531,0,42.969-2.191,48.949
		c-2.168,5.98-8.02,7.246-10.836,8.27c-10.979,3.977-8.676,14.75-1.16,17.573c9.398,3.527,26.146-1.359,26.146-1.359
		c14.684-3.266,11.047-6.844,19.194-24.254c8.133-16.684,11.453-115.12,12.348-136.2c12.438,1.715,53.484,6.973,90.293-10.336
		c9.246-4.352,19.813-4.984,25.919-5.684c-2.715,11.426,17.034,44.918,20.844,50.359c2.199,3.141,10.151,25.762,11.44,30.93
		c1.629,6.531-0.547,24.478-1.637,31c-1.086,6.531-1.086,6.531-5.438,10.336c-4.352,3.809-10.266,3.848-13.055,4.406
		c-8.805,1.77-6.727,14.013,0.32,16.648c3.797,1.422,36.344-0.891,37.262-9.07c0.543-4.898,5.375-14.156,10.824-26.672
		c5.441-12.517,7.074-36.988,5.441-47.32c-1.641-10.336-4.867-17.484-5.414-26.73c-0.539-9.246,1.598-36.366,1.598-36.366
		c5.824,23.022,49.172,73.949,52.98,82.656c3.809,8.702,11.75,25.043,14.469,34.827c2.723,9.793,8.629,16.191,4.82,25.431
		c-3.809,9.25-12.453,9.609-14.609,11.016c-9.359,6.109-7.598,14.93,0.414,16.969c11.793,3.008,35.313-1.422,37.586-3.691
		c3.809-3.809-0.469-16,0.609-45.375c1.086-29.371-8.703-54.387-15.227-69.621c-6.531-15.229-8.703-28.281-4.352-54.387
		c4.352-26.113,4.129-40.156-4.027-81.504c-8.16-41.332-42.75-69.715-42.75-69.715c-10.242-8.289-7.23-12.875-4.223-15.148
		c3.863-2.918,10.219-1.645,14.926,4.375c8.055-16.944-27.473-30.078-12.465-37.688c-5.813-15.224-18.109-26.556-32.156-32.177
		c-25.957-10.387-49.375,5.371-43.651-2.613c-22.902,5.867-34.688,23.263-39.224,41.035c-4.543,17.773-1.844,35.926,4.199,43.306
		c-7.066,1.637-30.453,7.066-49.492,2.18c-19.035-4.906-31-6.531-40.246-15.771c-9.246-9.25-33.723-27.742-33.723-27.742
		c-4.652-31.823-25.637-65.569-34.272-72.34c0-6.531-11.961-45.147-11.961-45.147c-5.988-24.474-28.836,20.125-28.836,20.125
		l-5.961-1.633c-3.801-5.977-19.027-25.021-30.453-29.367c-11.621-4.43-1.371,28.319-0.273,36.199
		c-9.246,3.266-22.023,33.965-22.023,33.965c-3.266,3.266-32.633,11.418-32.633,11.418c-16.324,2.727-5.449,15.781-5.449,15.781
		c-1.637,15.776,23.383,20.133,23.383,20.133L137.51,145.9z M239.55,60.002c2.156,7.98,2.34,13.267,1.898,18.146
		c-0.035-0.016-14.508-12.685-14.469-13.099C227.73,56.912,233.042,35.885,239.55,60.002L239.55,60.002z M186.335,91.619
		c8.109-3.074,17.41-3.148,6.25,8.055l-16.824,0.902C179.777,94.752,184.702,92.236,186.335,91.619z"/>
	
		<use xlink:href="#q"  width="24.641" height="15.688" x="-12.32" y="-7.844" transform="matrix(28.4084 0 0 -28.4084 479.3616 -317.5745)" overflow="visible"/>
</g>
</svg>
