<?xml version="1.0" encoding="utf-8"?>
<!-- Generator: Adobe Illustrator 16.0.0, SVG Export Plug-In . SVG Version: 6.00 Build 0)  -->
<!DOCTYPE svg PUBLIC "-//W3C//DTD SVG 1.1//EN" "http://www.w3.org/Graphics/SVG/1.1/DTD/svg11.dtd">
<svg version="1.1" id="Layer_1" xmlns="http://www.w3.org/2000/svg" xmlns:xlink="http://www.w3.org/1999/xlink" x="0px" y="0px"
	 width="40px" height="20px" viewBox="0 0 40 20" enable-background="new 0 0 40 20" xml:space="preserve">
<path fill="#FFFFFF" d="M4.999,4.884C4.836,5.027,4.145,5.169,3.839,5.21c0.243,0.315,1.467,0.417,3.155,0.327
	c0.254,0.332,0.866,2.791,0.83,3.642c-0.056,1.32,2.344,2.808,2.488,4.032c0.101,0.406,0.519,1.633,0.556,1.965
	c0.042,0.379,0.725,3.129-0.326,3.195c-0.652,0.043-1.291-0.139-1.449,0.375c-0.071,0.834,3.079,0.186,3.079,0.186
	c0.797-0.291,1.557-3.361,1.557-3.361s0.146,0.893,0.109,1.141c-0.037,0.25,0,1.641-0.146,1.867
	c-0.145,0.229-0.534,0.279-0.722,0.316c-0.731,0.15-0.578,0.563-0.077,0.67c0.626,0.135,1.742-0.051,1.742-0.051
	c0.977-0.125,0.735-0.262,1.278-0.924c0.542-0.639,0.763-4.393,0.822-5.199c0.829,0.066,3.562,0.268,6.013-0.393
	c0.615-0.168,1.319-0.189,1.728-0.217c-0.181,0.434,1.135,1.713,1.387,1.92c0.147,0.121,0.677,0.984,0.763,1.182
	c0.107,0.25-0.035,0.934-0.109,1.182c-0.073,0.25-0.073,0.25-0.361,0.395c-0.29,0.146-0.684,0.146-0.87,0.168
	c-0.587,0.066-0.447,0.535,0.021,0.635c0.253,0.055,2.421-0.033,2.481-0.346c0.036-0.186,0.358-0.541,0.722-1.018
	c0.361-0.477,0.471-1.41,0.361-1.807c-0.109-0.393-0.324-0.666-0.359-1.02c-0.038-0.352,0.105-1.385,0.105-1.385
	c0.389,0.877,3.275,2.82,3.528,3.152c0.254,0.332,0.782,0.955,0.963,1.328c0.183,0.373,0.575,0.619,0.322,0.971
	c-0.254,0.354-0.83,0.367-0.974,0.42c-0.623,0.234-0.505,0.57,0.028,0.646c0.784,0.115,2.351-0.053,2.503-0.139
	c0.254-0.146-0.032-0.611,0.039-1.732c0.073-1.121-0.578-2.074-1.013-2.656c-0.436-0.582-0.58-1.078-0.29-2.074
	s0.275-1.531-0.269-3.11c-0.543-1.577-2.847-2.66-2.847-2.66c-0.682-0.315-0.481-0.49-0.281-0.577
	c0.256-0.112,0.681-0.063,0.994,0.167c0.537-0.647-1.83-1.148-0.831-1.438c-0.387-0.581-1.205-1.014-2.141-1.228
	c-1.729-0.397-3.289,0.204-2.907-0.101c-1.523,0.224-2.31,0.888-2.612,1.565c-0.303,0.679-0.122,1.372,0.281,1.653
	c-0.473,0.063-2.028,0.27-3.297,0.083c-1.268-0.188-2.064-0.25-2.68-0.602s-2.246-1.059-2.246-1.059
	c-0.31-1.213-1.707-2.501-2.282-2.759c0-0.25-0.797-1.723-0.797-1.723c-0.399-0.934-1.92,0.768-1.92,0.768L9.49,1.522
	C9.237,1.294,8.223,0.568,7.462,0.402C6.688,0.233,7.371,1.483,7.444,1.783C6.829,1.907,5.977,3.078,5.977,3.078
	C5.76,3.203,3.804,3.514,3.804,3.514C2.717,3.618,3.441,4.117,3.441,4.117C3.332,4.718,4.999,4.884,4.999,4.884L4.999,4.884z
	 M11.794,1.607c0.144,0.304,0.156,0.506,0.126,0.692c-0.002,0-0.966-0.484-0.963-0.5C11.007,1.489,11.361,0.688,11.794,1.607
	L11.794,1.607z M8.25,2.814c0.54-0.118,1.159-0.121,0.416,0.307l-1.12,0.035C7.813,2.933,8.142,2.836,8.25,2.814z"/>
</svg>
