<?xml version="1.0" encoding="utf-8"?>
<!-- Generator: Adobe Illustrator 16.0.0, SVG Export Plug-In . SVG Version: 6.00 Build 0)  -->
<!DOCTYPE svg PUBLIC "-//W3C//DTD SVG 1.1//EN" "http://www.w3.org/Graphics/SVG/1.1/DTD/svg11.dtd">
<svg version="1.1" id="Layer_1" xmlns="http://www.w3.org/2000/svg" xmlns:xlink="http://www.w3.org/1999/xlink" x="0px" y="0px"
	 width="40px" height="40px" viewBox="0 0 40 40" enable-background="new 0 0 40 40" xml:space="preserve">
<path fill="#221015" d="M3.621,10.483c-0.184,0.282-0.964,0.563-1.311,0.642c0.275,0.623,1.658,0.824,3.566,0.645
	c0.288,0.656,0.979,5.508,0.938,7.187c-0.063,2.604,2.649,5.538,2.812,7.958c0.114,0.801,0.586,3.221,0.628,3.877
	c0.047,0.75,0.819,6.172-0.369,6.305c-0.737,0.082-1.459-0.273-1.638,0.736c-0.08,1.646,3.48,0.369,3.48,0.369
	c0.901-0.572,1.76-6.633,1.76-6.633s0.165,1.76,0.124,2.252c-0.042,0.492,0,3.234-0.165,3.684c-0.163,0.451-0.604,0.547-0.816,0.623
	c-0.826,0.299-0.653,1.109-0.087,1.322c0.708,0.266,1.968-0.102,1.968-0.102c1.105-0.246,0.831-0.516,1.445-1.826
	c0.612-1.256,0.862-8.664,0.929-10.252c0.936,0.129,4.026,0.525,6.797-0.777c0.695-0.328,1.491-0.375,1.95-0.428
	c-0.204,0.859,1.282,3.381,1.569,3.791c0.165,0.236,0.764,1.938,0.861,2.328c0.122,0.49-0.041,1.842-0.123,2.332
	c-0.082,0.492-0.082,0.492-0.41,0.779c-0.327,0.285-0.772,0.289-0.982,0.33c-0.663,0.135-0.506,1.055,0.023,1.254
	c0.287,0.107,2.736-0.066,2.807-0.684c0.04-0.367,0.404-1.064,0.814-2.008c0.409-0.941,0.531-2.783,0.409-3.561
	c-0.124-0.779-0.366-1.316-0.407-2.012c-0.041-0.697,0.12-2.738,0.12-2.738c0.438,1.732,3.701,5.566,3.987,6.223
	c0.287,0.654,0.886,1.885,1.09,2.621c0.205,0.736,0.649,1.219,0.363,1.914c-0.288,0.695-0.938,0.723-1.1,0.83
	c-0.706,0.459-0.572,1.123,0.03,1.277c0.888,0.225,2.658-0.107,2.829-0.279c0.287-0.285-0.035-1.203,0.046-3.414
	c0.082-2.213-0.654-4.094-1.146-5.242c-0.491-1.146-0.655-2.129-0.328-4.094c0.328-1.965,0.311-3.023-0.303-6.134
	c-0.614-3.112-3.219-5.249-3.219-5.249c-0.771-0.623-0.543-0.968-0.317-1.14c0.291-0.219,0.77-0.123,1.123,0.329
	c0.606-1.275-2.067-2.264-0.938-2.836c-0.438-1.146-1.363-1.999-2.421-2.422c-1.954-0.782-3.717,0.404-3.286-0.196
	c-1.724,0.441-2.61,1.751-2.952,3.088c-0.342,1.338-0.139,2.705,0.316,3.26c-0.531,0.123-2.293,0.532-3.726,0.164
	c-1.433-0.37-2.333-0.491-3.029-1.188c-0.696-0.696-2.539-2.088-2.539-2.088c-0.35-2.395-1.93-4.936-2.58-5.445
	c0-0.491-0.9-3.398-0.9-3.398c-0.451-1.842-2.171,1.515-2.171,1.515L8.698,3.849c-0.286-0.45-1.432-1.883-2.292-2.21
	C5.531,1.305,6.303,3.771,6.385,4.364C5.689,4.609,4.728,6.92,4.728,6.92C4.482,7.166,2.271,7.78,2.271,7.78
	C1.042,7.985,1.861,8.968,1.861,8.968C1.738,10.155,3.621,10.483,3.621,10.483L3.621,10.483z M11.302,4.017
	c0.162,0.601,0.176,0.999,0.143,1.366c-0.003-0.001-1.092-0.955-1.089-0.986C10.413,3.784,10.813,2.201,11.302,4.017L11.302,4.017z
	 M7.296,6.396C7.907,6.166,8.607,6.16,7.767,7.003L6.5,7.071C6.803,6.632,7.173,6.443,7.296,6.396z"/>
</svg>
